<svg width="120" height="74" viewBox="0 0 120 74" fill="none" xmlns="http://www.w3.org/2000/svg">
<path d="M60 57.8C58.7 59.3 57.2 60.7 55.6 61.9C50.4 65.7 44 68 37 68C19.9 68 6 54.1 6 37C6 19.9 19.9 6 37 6C44 6 50.4 8.3 55.6 12.2C57.2 13.4 58.7 14.8 60 16.3C61.3 14.8 62.8 13.5 64.4 12.2C63.1 10.7 61.6 9.3 60 8C53.7 3 45.7 0 37 0C16.6 0 0 16.6 0 37C0 57.4 16.6 74 37 74C45.7 74 53.7 71 60 66C61.6 64.7 63.1 63.3 64.4 61.8C62.8 60.6 61.4 59.2 60 57.8Z" fill="#0012FF"/>
<path d="M83 0C74.3 0 66.3 3 60 8C58.4 9.3 56.9 10.6 55.6 12.2C57.2 13.4 58.7 14.8 60 16.3C61.3 14.8 62.8 13.5 64.4 12.2C69.6 8.3 76.1 6 83 6C100.1 6 114 19.9 114 37C114 54.1 100.1 68 83 68C76 68 69.6 65.7 64.4 61.8C62.8 60.6 61.3 59.2 60 57.7C58.7 59.2 57.2 60.6 55.6 61.8C57 63.3 58.5 64.7 60 66C66.3 71 74.3 74 83 74C103.4 74 120 57.4 120 37C120 16.6 103.5 0 83 0Z" fill="#0012FF"/>
</svg>
